<svg xmlns="http://www.w3.org/2000/svg" viewBox="0 0 24 24"><path d="M22.69 20.56l-4.24-4.24a1.5 1.5 0 10-2.12 2.12l4.24 4.24a1.5 1.5 0 102.12-2.12z" fill="#788296" fill-rule="evenodd" opacity=".6"/><path d="M4.3 3.66l5 1.7a.44.44 0 00.41-.06l4.23-3.16a.44.44 0 01.71.36l-.07 5.28a.44.44 0 00.19.37l4.31 3A.44.44 0 0119 12l-5 1.57a.44.44 0 00-.29.29l-1.57 5a.44.44 0 01-.79.12l-3-4.31a.44.44 0 00-.37-.19l-5.28.07a.44.44 0 01-.36-.71l3.03-4.21a.44.44 0 00.06-.41l-1.7-5a.44.44 0 01.57-.56z" fill="none" stroke="#788296" stroke-miterlimit="10" stroke-width="2.5" opacity=".6"/></svg>