<svg version="1.1" id="layer" xmlns="http://www.w3.org/2000/svg" x="0" y="0" viewBox="0 0 464 64" xml:space="preserve"><style>.st5{fill:#192a39}</style><path d="M50 2v30c0 9.9-8.1 18-18 18s-18-8.1-18-18V2H2v32h.1C3.2 50.5 17.5 63 34 61.9 49 60.9 60.9 49 61.9 34h.1V2H50z" fill="#eb385b"/><path d="M70 2h60v12H70V2zm0 48h60v12H70V50zm0-24h60v12H70V26z" fill="#ff9800"/><path d="M170 2.1L138 2v12h32v.1c9.9 1.1 17 10 15.9 19.9-.9 8.4-7.5 15-15.9 15.9v.1h-32v12h32v-.1c16.5-1.1 29-15.4 27.9-31.9-1-15-12.9-26.9-27.9-27.9z" fill="#148eef"/><path opacity=".1" fill="#192a39" d="M207 2h2v60h-2z"/><path class="st5" d="M226.9 53.6c0 4-1.8 6-5.4 6-3.5 0-5.2-1.9-5.2-5.8v-8.6h1.8v8.5c0 2.8 1.2 4.2 3.5 4.2s3.4-1.4 3.4-4.1v-8.6h1.8l.1 8.4zm3.2 3.1c.4.4 1 .7 1.7.9s1.4.4 2.1.4c2 0 3-.7 3-2.1 0-.4-.1-.7-.3-1.1-.2-.3-.5-.6-.9-.8s-1.1-.6-2.1-1.1c-1.4-.7-2.3-1.4-2.8-2-.4-.6-.7-1.3-.7-2.1 0-1.2.5-2.1 1.4-2.8s2.1-1 3.6-1c1.4 0 2.4.2 3.1.5v2c-.8-.6-1.9-.9-3.2-.9-.9 0-1.6.2-2.1.5-.5.4-.8.9-.8 1.5s.2 1 .6 1.4c.4.4 1.2.8 2.4 1.5 1.4.7 2.4 1.3 2.9 2 .6.7.8 1.4.8 2.2 0 1.2-.4 2.2-1.3 2.8-.9.7-2.1 1-3.7 1-.6 0-1.2-.1-2-.2-.7-.2-1.3-.3-1.6-.6l-.1-2zm19.3 2.7h-7.6V45.3h7.3v1.6h-5.4v4.5h5V53h-5v4.7h5.8v1.7h-.1zm13.4 0h-2.1l-2.3-3.9c-.5-.8-.9-1.3-1.3-1.6s-.9-.4-1.4-.4h-1.3v5.9h-1.8V45.3h4.3c1.4 0 2.4.3 3.2 1 .8.7 1.2 1.6 1.2 2.8 0 2-1 3.2-3.1 3.8.4.2.7.4 1 .7s.6.8 1.1 1.6l2.5 4.2zm-8.5-12.5v5h2.1c.8 0 1.5-.2 2-.7s.8-1.1.8-1.9c0-.7-.2-1.3-.7-1.7s-1.2-.6-2.1-.6l-2.1-.1zm24.2 12.5h-7.6V45.3h7.3v1.6h-5.4v4.5h5V53h-5v4.7h5.8l-.1 1.7zm12.9 0h-2.2l-3.1-5.3c-.1-.1-.2-.4-.3-.7 0 0-.1.3-.3.7l-3.2 5.3h-2.2l4.7-7.1-4.3-7h2.2l2.8 4.9c.2.3.3.6.5 1 .1-.3.3-.7.5-1l2.9-4.8h2.1l-4.4 7 4.3 7zm4.3-5.3v5.3h-1.8V45.3h4c1.5 0 2.7.4 3.5 1.1.8.7 1.3 1.8 1.3 3.1 0 1.4-.5 2.5-1.5 3.4s-2.2 1.3-3.7 1.2h-1.8zm0-7.2v5.6h1.7c1.1 0 2-.3 2.5-.8.6-.5.9-1.2.9-2.2 0-1.8-1.1-2.7-3.2-2.7h-1.9v.1zm17.6 12.5h-7.6V45.3h7.3v1.6h-5.4v4.5h5V53h-5v4.7h5.8l-.1 1.7zm13.3 0h-2.1l-2.3-3.9c-.5-.8-.9-1.3-1.3-1.6s-.9-.4-1.4-.4h-1.3v5.9h-1.8V45.3h4.3c1.4 0 2.4.3 3.2 1 .8.7 1.2 1.6 1.2 2.8 0 2-1 3.2-3.1 3.8.4.2.7.4 1 .7s.6.8 1.1 1.6l2.5 4.2zm-8.5-12.5v5h2.1c.8 0 1.5-.2 2-.7s.8-1.1.8-1.9c0-.7-.2-1.3-.7-1.7s-1.2-.6-2.1-.6l-2.1-.1zm12.5-1.6v14.1h-1.8V45.3h1.8zm11.7 14.1h-7.6V45.3h7.3v1.6h-5.4v4.5h5V53h-5v4.7h5.8l-.1 1.7zm14.5 0h-2.2l-7.1-11c-.2-.3-.4-.6-.5-.9 0 .3.1 1 .1 2v9.9h-1.8V45.3h2.3l6.9 10.8c.3.5.5.8.6 1-.1-.4-.1-1.1-.1-2.1v-9.7h1.8v14.1zm13.7-.6c-1 .5-2.3.8-3.9.8-2 0-3.6-.6-4.8-1.9-1.2-1.3-1.8-3-1.8-5.1 0-2.3.7-4.1 2-5.5 1.4-1.4 3.1-2.1 5.2-2.1 1.3 0 2.5.2 3.3.6v1.9c-1-.6-2.1-.8-3.3-.8-1.6 0-2.8.5-3.8 1.6-1 1-1.5 2.5-1.5 4.2s.5 3 1.4 4 2.1 1.5 3.6 1.5c1.4 0 2.6-.3 3.6-.9v1.7zm10.7.6h-7.6V45.3h7.3v1.6h-5.4v4.5h5V53h-5v4.7h5.8l-.1 1.7zm8.9 0V45.3h4c2.1 0 3.9.6 5.3 1.9 1.4 1.2 2.1 2.9 2.1 5 0 2.2-.7 3.9-2.1 5.2s-3.2 2-5.5 2h-3.8zm1.9-12.5v10.9h2c1.8 0 3.2-.5 4.2-1.5s1.5-2.3 1.5-4.1-.5-3.1-1.5-4-2.4-1.3-4.1-1.3H392zm20.3 12.5h-7.6V45.3h7.3v1.6h-5.4v4.5h5V53h-5v4.7h5.8l-.1 1.7zm2.4-2.7c.4.4 1 .7 1.7.9s1.4.4 2.1.4c2 0 3-.7 3-2.1 0-.4-.1-.7-.3-1.1-.2-.3-.5-.6-.9-.8s-1.1-.6-2.1-1.1c-1.4-.7-2.3-1.4-2.8-2-.4-.6-.7-1.3-.7-2.1 0-1.2.5-2.1 1.4-2.8s2.1-1 3.6-1c1.4 0 2.4.2 3.1.5v2c-.8-.6-1.9-.9-3.2-.9-.9 0-1.6.2-2.1.5-.5.4-.8.9-.8 1.5s.2 1 .6 1.4 1.2.8 2.4 1.5c1.4.7 2.4 1.3 2.9 2 .6.7.8 1.4.8 2.2 0 1.2-.4 2.2-1.3 2.8-.9.7-2.1 1-3.7 1-.6 0-1.2-.1-2-.2-.7-.2-1.3-.3-1.6-.6v-2h-.1zm13.6-11.4v14.1h-1.8V45.3h1.8zM443 58.4c-1.4.8-3 1.2-4.8 1.2-2 0-3.7-.6-4.9-1.9-1.2-1.3-1.9-3-1.9-5.2s.7-4 2.1-5.4 3.1-2.1 5.3-2.1c1.5 0 2.8.2 3.9.7v2c-1.1-.7-2.5-1.1-4-1.1s-2.8.5-3.8 1.6c-1 1-1.5 2.4-1.5 4.1 0 1.8.5 3.1 1.4 4.1s2.2 1.5 3.7 1.5c1.1 0 2-.2 2.7-.6v-3.8h-3.1V52h4.9v6.4zm15 1h-2.2l-7.1-11c-.2-.3-.4-.6-.5-.9h-.1c0 .3.1 1 .1 2v9.9h-1.8V45.3h2.3l6.9 10.8c.3.5.5.8.6 1-.1-.4-.1-1.1-.1-2.1v-9.7h1.8v14.1h.1z" opacity=".7"/><path class="st5" d="M244.1 30.3c0 1.2-.3 2.2-.8 2.9-.6.7-1.4 1.1-2.6 1.2-1.2.1-2.7.2-4.6.1-.3-1.5-.7-2.9-1.2-4.2 2 .1 3.1.2 3.3.2 1.2 0 1.8-.6 1.8-1.8V26h-6.1v8.2h-4.1V26h-6.3c-.3 4.3-1.1 7.3-2.5 9-1.3-.9-2.5-1.7-3.8-2.5 1.6-2.1 2.3-6 2.3-11.5V7.3h24.6v23zm-20.6-15.5h6.2v-3.6h-6.2v3.6zm0 7.4h6.2v-3.6h-6.2v3.6zm16.5-11h-6.1v3.6h6.1v-3.6zm-6.1 11h6.1v-3.6h-6.1v3.6zM250 10.3h9.8c-.5-1.2-1-2.2-1.4-2.9l4.3-1.4c.5 1 1.2 2.5 2.1 4.4h9.3v15.1H270V24h-16.2c-.5 4.6-1.7 8.3-3.8 11-1.1-1.4-2.1-2.6-3-3.6 2-2.8 3-6.4 3-11V10.3zm20.1 9.7v-5.7h-16V20h16zm11.4-13.9l3.8 1c-.7 2.5-1.4 4.8-2.1 7V26c3.1-3.3 5.4-7.1 7-11.5h-5.3v-3.7h7.6V6.1h3.9v4.7h8.4v3.7h-6.3c1.5 4.2 4 7.8 7.5 11-.8 1.3-1.7 2.7-2.5 4.2-.8-.8-1.5-1.7-2.2-2.7v3h-4.9v4.9h-3.9V30h-4.7v-3.1c-.8 1.1-1.6 2.2-2.5 3.2-.6-.9-1.3-2-2.1-3.3v8.1h-3.5V22c-.6 1.1-1.3 2.2-1.9 3.1-.2-1.8-.5-3.6-.9-5.5 1.4-2.9 2.9-7.4 4.6-13.5zm6.6 20.2h4.4V16.1c-1 3.8-2.5 7.1-4.4 10.2zm8.2-10v10h4.4c-1.8-2.7-3.3-6.1-4.4-10zm10.4 9c2.1-.2 4.4-.4 6.8-.8 0 1.2 0 2.4.1 3.5-2.2.3-4.3.6-6.4.9l-.5-3.6zm4.9-13.3l-.8 7.3h2.1l.7-8.2h-6.4V7.6h10.2l-1 11.7h1.7c-.2 5.6-.4 9.2-.5 10.7-.1 2.4-1 3.7-2.7 4.1-.8.1-2.7.2-5.6.2-.2-1.4-.4-2.7-.6-4 1.2.1 2.5.2 3.9.3 1 0 1.5-.5 1.6-1.4.1-1.3.2-3.4.3-6.4h-7.4l1-10.8h3.5zm20.7 6.6h-11.2V17l-2.1 1.8c-.6-1.2-1.2-2.4-1.9-3.7 3.2-2.3 5.7-5.3 7.6-8.8h4.5l-.6 1.1c2.3 3.3 4.9 5.8 7.7 7.4-.7 1.1-1.4 2.3-2 3.6-.7-.4-1.3-.9-1.9-1.4v1.6h-.1zm-14 11.8h10c1.2-3.6 2-7 2.6-10.3l3.6.9c-.8 3-1.7 6.1-2.8 9.3h3.6v3.5h-17.1l.1-3.4zm3.3-9.6c1 2.4 1.9 5 2.8 7.8l-3.2 1.1c-.6-2.2-1.5-4.9-2.6-7.9l3-1zm4.9-10.2c-.9 1.4-2.1 2.9-3.5 4.5h7.4c-1.5-1.5-2.8-3-3.9-4.5zm.5 9c.7 2.6 1.3 5.3 1.8 7.9l-3.3.8c-.4-2.4-.9-5.1-1.6-7.9l3.1-.8zm19.3 4.1c.2 1.5.4 3 .8 4.5-2.7 2.4-4.7 4.4-6 5.8l-2.1-3.1c.4-.5.6-1.3.6-2.3v-8.8h-2.8v-4h6.8v10.6c.5-.5 1.4-1.5 2.7-2.7zm-4.8-17.8c1.6 1.9 3 3.7 4.2 5.2l-3.6 2.5c-1.4-2.3-2.7-4.2-3.8-5.5l3.2-2.2zm24.2 7.1c-.4 1.6-.6 2.8-.7 3.6-1.8 0-3.1.1-4 .1-2.2 0-3.3-1-3.3-3.1v-3h-5c0 2.8-1.3 5.3-3.9 7.5h14.8v3.5c-1.4 2.7-3.1 5-5.1 7 2.2 1 4.6 1.8 7.3 2.2-.8 1.2-1.5 2.6-2.3 4.1-3.2-.8-6-1.9-8.5-3.5-2.5 1.7-5.4 2.9-8.7 3.7-.5-1.2-1.3-2.5-2.3-3.8 2.8-.6 5.3-1.5 7.4-2.5-1.7-1.5-3.1-3.3-4.4-5.3l2.6-1.7h-3.1v-3.6h2c-.8-.9-1.8-1.9-3-3.1 2.1-1.5 3.2-3.5 3.2-6V7h13v4.7c0 .8.2 1.2.7 1.3s1.6.1 3.3 0zM355 26.4c1.7-1.3 3-2.9 4-4.7h-8.4c1.2 1.8 2.7 3.4 4.4 4.7zm22.9-1.7c.2 1.8.3 3.3.5 4.3-3.8 2.4-6.1 4.2-7.1 5.3l-2.2-2.9c.5-.6.7-1.4.7-2.5v-9.4h-3v-3.8h6.9v11.6c.8-.4 2.2-1.3 4.2-2.6zm-6-18.7c1.5 2.1 2.8 3.9 3.9 5.4l-3.8 2.3c-1-1.7-2.1-3.6-3.5-5.7l3.4-2zm4.6 8.9h7.4V6h4.4v8.9h7.5v3.9h-7.5v16.1h-4.4V18.8h-7.4v-3.9zM398 34.7V7.2h26.7v27.5h-4.1v-1H402v1.1l-4-.1zm22.6-24H402v19.4h18.5V10.7h.1zm-7.2.7h3.8V14h2.1v3.4h-2.1v6.3c0 1.8-.4 3.1-1.2 4s-2 1.4-3.5 1.5-2.8.1-4 .1c-.2-1.4-.5-2.6-.8-3.7.9.1 2 .1 3.2.1 1.6 0 2.4-.8 2.4-2.4v-4.8c-2.1 3-4.9 5.9-8.6 8.7-.9-1.3-1.7-2.3-2.5-3.2 3.5-2 6.3-4.3 8.5-6.7h-7.5V14h10.1v-2.6h.1zM433 27.8c-.3-.9-.7-2.1-1.2-3.5V35H428V7.2h11.2V10l-2.5 7.2c1.8 1.9 2.6 3.9 2.6 6 0 1.7-.6 2.8-1.8 3.5-1.2.7-2.7 1.1-4.5 1.1zm-.3-10.1c.7-2.2 1.5-4.5 2.3-7.1h-3.2v13.2c.8.1 1.5.1 2.1.1 1 0 1.5-.4 1.5-1.2 0-1.5-.9-3.1-2.7-5zm11.1-11.5h4.3c0 3-.1 5.5-.2 7.6.7 4.7 1.7 8.2 2.9 10.6s2.9 4.3 5.2 5.8c-.8 1-1.8 2.5-2.9 4.3-3.7-3.9-6-8.2-6.9-12.7-.8 4.4-3.6 8.8-8.1 12.9-.7-1.3-1.7-2.6-2.7-3.9 3.7-2.7 6-5.6 7-8.6s1.5-7.7 1.5-14.1l-.1-1.9z"/></svg>